# Blender 4.0.0
# www.blender.org
mtllib LowPolyTree_leaves.mtl
o Cone
v 1.199996 8.024091 -5.612230
v 4.816971 8.024091 -3.119921
v 5.612230 8.024091 1.199996
v 3.119921 8.024091 4.816971
v -1.199996 8.024091 5.612230
v -4.816971 8.024091 3.119921
v -5.612230 8.024091 -1.199996
v -3.119921 8.024091 -4.816971
v 0.000000 10.550635 0.000000
v 0.000000 10.272337 -5.073971
v 3.587839 10.272337 -3.587839
v 5.073971 10.272337 0.000000
v 3.587839 10.272337 3.587839
v 0.000000 10.272337 5.073971
v -3.587839 10.272337 3.587839
v -5.073971 10.272337 0.000000
v -3.587839 10.272337 -3.587839
v 0.000000 12.506074 0.000000
v -0.937972 12.260029 -4.386780
v 2.438675 12.260029 -3.765168
v 4.386780 12.260029 -0.937972
v 3.765168 12.260029 2.438675
v 0.937972 12.260029 4.386780
v -2.438675 12.260029 3.765168
v -4.386780 12.260029 0.937972
v -3.765168 12.260029 -2.438675
v 0.000000 14.234893 0.000000
v -1.621877 14.017362 -3.619265
v 1.412367 14.017362 -3.706046
v 3.619265 14.017362 -1.621877
v 3.706046 14.017362 1.412367
v 1.621877 14.017362 3.619265
v -1.412367 14.017362 3.706046
v -3.619265 14.017362 1.621877
v -3.706046 14.017362 -1.412367
v 0.000000 15.763353 0.000000
v -2.071274 15.571033 -2.829271
v 0.535985 15.571033 -3.465209
v 2.829271 15.571033 -2.071274
v 3.465209 15.571033 0.535985
v 2.071274 15.571033 2.829271
v -0.535985 15.571033 3.465209
v -2.829271 15.571033 2.071274
v -3.465209 15.571033 -0.535985
v 0.000000 17.114679 0.000000
v -2.313770 16.944645 -2.063195
v -0.177183 16.944645 -3.094981
v 2.063195 16.944645 -2.313770
v 3.094981 16.944645 -0.177183
v 2.313770 16.944645 2.063195
v 0.177183 16.944645 3.094981
v -2.063195 16.944645 2.313770
v -3.094981 16.944645 0.177183
v 0.000000 18.309395 0.000000
v -2.381807 18.159067 -1.356045
v -0.725323 18.159067 -2.643060
v 1.356045 18.159067 -2.381807
v 2.643060 18.159067 -0.725323
v 2.381807 18.159067 1.356045
v 0.725323 18.159067 2.643060
v -1.356045 18.159067 2.381807
v -2.643060 18.159067 0.725323
v 0.000000 19.365652 0.000000
v -2.309905 19.232748 -0.732089
v -1.115684 19.232748 -2.151015
v 0.732089 19.232748 -2.309905
v 2.151015 19.232748 -1.115684
v 2.309905 19.232748 0.732089
v 1.115684 19.232748 2.151015
v -0.732089 19.232748 2.309905
v -2.151015 19.232748 1.115684
v 0.000000 20.299498 0.000000
v -2.132398 20.181995 -0.205931
v -1.362218 20.181995 -1.653448
v 0.205931 20.181995 -2.132398
v 1.653448 20.181995 -1.362218
v 2.132398 20.181995 0.205931
v 1.362218 20.181995 1.653448
v -0.205931 20.181995 2.132398
v -1.653448 20.181995 1.362218
v 0.000000 21.125118 0.000000
v -1.881666 21.021233 0.216153
v -1.483382 21.021233 -1.177695
v -0.216153 21.021233 -1.881666
v 1.177695 21.021233 -1.483382
v 1.881666 21.021233 -0.216153
v 1.483382 21.021233 1.177695
v 0.216153 21.021233 1.881666
v -1.177695 21.021233 1.483382
v 0.000000 21.855055 0.000000
vn 0.3542 0.9027 0.2441
vn 0.0779 0.9027 0.4231
vn -0.2441 0.9027 0.3542
vn -0.4231 0.9027 0.0779
vn -0.3542 0.9027 -0.2441
vn -0.0779 0.9027 -0.4231
vn 0.2441 0.9027 -0.3542
vn 0.4231 0.9027 -0.0779
vn 0.3974 0.9027 0.1646
vn 0.1646 0.9027 0.3974
vn -0.1646 0.9027 0.3974
vn -0.3974 0.9027 0.1646
vn -0.3974 0.9027 -0.1646
vn -0.1646 0.9027 -0.3974
vn 0.1646 0.9027 -0.3974
vn 0.3974 0.9027 -0.1646
vn 0.4231 0.9027 0.0779
vn 0.2441 0.9027 0.3542
vn -0.0779 0.9027 0.4231
vn -0.3542 0.9027 0.2441
vn -0.4231 0.9027 -0.0779
vn -0.2441 0.9027 -0.3542
vn 0.0779 0.9027 -0.4231
vn 0.3542 0.9027 -0.2441
vn 0.4300 0.9027 -0.0123
vn 0.3127 0.9027 0.2954
vn 0.0123 0.9027 0.4300
vn -0.2954 0.9027 0.3127
vn -0.4300 0.9027 0.0123
vn -0.3127 0.9027 -0.2954
vn -0.0123 0.9027 -0.4300
vn 0.2954 0.9027 -0.3127
vn 0.4179 0.9027 -0.1019
vn 0.3676 0.9027 0.2234
vn 0.1019 0.9027 0.4179
vn -0.2234 0.9027 0.3676
vn -0.4179 0.9027 0.1019
vn -0.3676 0.9027 -0.2234
vn -0.1019 0.9027 -0.4179
vn 0.2234 0.9027 -0.3676
vn 0.3874 0.9027 -0.1871
vn 0.4062 0.9027 0.1416
vn 0.1871 0.9027 0.3874
vn -0.1416 0.9027 0.4062
vn -0.3874 0.9027 0.1871
vn -0.4062 0.9027 -0.1416
vn -0.1871 0.9027 -0.3874
vn 0.1416 0.9027 -0.4062
vn 0.3397 0.9027 -0.2639
vn 0.4268 0.9028 0.0536
vn 0.2639 0.9027 0.3397
vn -0.0536 0.9027 0.4268
vn -0.3397 0.9027 0.2639
vn -0.4268 0.9028 -0.0536
vn -0.2639 0.9027 -0.3397
vn 0.0536 0.9027 -0.4268
vn 0.2770 0.9028 -0.3291
vn 0.4286 0.9028 -0.0369
vn 0.3291 0.9027 0.2770
vn 0.0369 0.9027 0.4286
vn -0.2770 0.9028 0.3291
vn -0.4286 0.9027 0.0369
vn -0.3291 0.9027 -0.2770
vn -0.0369 0.9027 -0.4286
vn 0.2021 0.9027 -0.3798
vn 0.4114 0.9028 -0.1257
vn 0.3798 0.9027 0.2021
vn 0.1257 0.9027 0.4114
vn -0.2021 0.9027 0.3798
vn -0.4114 0.9027 0.1257
vn -0.3798 0.9027 -0.2021
vn -0.1257 0.9027 -0.4114
vn 0.1182 0.9027 -0.4136
vn 0.3760 0.9027 -0.2089
vn 0.4136 0.9027 0.1182
vn 0.2089 0.9027 0.3760
vn -0.1182 0.9027 0.4136
vn -0.3760 0.9027 0.2089
vn -0.4136 0.9027 -0.1182
vn -0.2089 0.9027 -0.3760
vt 1.000000 0.707107
vt 0.707107 1.000000
vt 0.500000 0.500000
vt 1.000000 0.292893
vt 0.707107 0.000000
vt 0.292893 0.000000
vt -0.000000 0.292893
vt -0.000000 0.707107
vt 0.292893 1.000000
s 0
f 4/1/1 3/2/1 9/3/1
f 5/4/2 4/1/2 9/3/2
f 6/5/3 5/4/3 9/3/3
f 7/6/4 6/5/4 9/3/4
f 8/7/5 7/6/5 9/3/5
f 9/3/6 1/8/6 8/7/6
f 2/9/7 1/8/7 9/3/7
f 3/2/8 2/9/8 9/3/8
f 13/1/9 12/2/9 18/3/9
f 14/4/10 13/1/10 18/3/10
f 15/5/11 14/4/11 18/3/11
f 16/6/12 15/5/12 18/3/12
f 17/7/13 16/6/13 18/3/13
f 18/3/14 10/8/14 17/7/14
f 11/9/15 10/8/15 18/3/15
f 12/2/16 11/9/16 18/3/16
f 22/1/17 21/2/17 27/3/17
f 23/4/18 22/1/18 27/3/18
f 24/5/19 23/4/19 27/3/19
f 25/6/20 24/5/20 27/3/20
f 26/7/21 25/6/21 27/3/21
f 27/3/22 19/8/22 26/7/22
f 20/9/23 19/8/23 27/3/23
f 21/2/24 20/9/24 27/3/24
f 31/1/25 30/2/25 36/3/25
f 32/4/26 31/1/26 36/3/26
f 33/5/27 32/4/27 36/3/27
f 34/6/28 33/5/28 36/3/28
f 35/7/29 34/6/29 36/3/29
f 36/3/30 28/8/30 35/7/30
f 29/9/31 28/8/31 36/3/31
f 30/2/32 29/9/32 36/3/32
f 40/1/33 39/2/33 45/3/33
f 41/4/34 40/1/34 45/3/34
f 42/5/35 41/4/35 45/3/35
f 43/6/36 42/5/36 45/3/36
f 44/7/37 43/6/37 45/3/37
f 45/3/38 37/8/38 44/7/38
f 38/9/39 37/8/39 45/3/39
f 39/2/40 38/9/40 45/3/40
f 49/1/41 48/2/41 54/3/41
f 50/4/42 49/1/42 54/3/42
f 51/5/43 50/4/43 54/3/43
f 52/6/44 51/5/44 54/3/44
f 53/7/45 52/6/45 54/3/45
f 54/3/46 46/8/46 53/7/46
f 47/9/47 46/8/47 54/3/47
f 48/2/48 47/9/48 54/3/48
f 58/1/49 57/2/49 63/3/49
f 59/4/50 58/1/50 63/3/50
f 60/5/51 59/4/51 63/3/51
f 61/6/52 60/5/52 63/3/52
f 62/7/53 61/6/53 63/3/53
f 63/3/54 55/8/54 62/7/54
f 56/9/55 55/8/55 63/3/55
f 57/2/56 56/9/56 63/3/56
f 67/1/57 66/2/57 72/3/57
f 68/4/58 67/1/58 72/3/58
f 69/5/59 68/4/59 72/3/59
f 70/6/60 69/5/60 72/3/60
f 71/7/61 70/6/61 72/3/61
f 72/3/62 64/8/62 71/7/62
f 65/9/63 64/8/63 72/3/63
f 66/2/64 65/9/64 72/3/64
f 76/1/65 75/2/65 81/3/65
f 77/4/66 76/1/66 81/3/66
f 78/5/67 77/4/67 81/3/67
f 79/6/68 78/5/68 81/3/68
f 80/7/69 79/6/69 81/3/69
f 81/3/70 73/8/70 80/7/70
f 74/9/71 73/8/71 81/3/71
f 75/2/72 74/9/72 81/3/72
f 85/1/73 84/2/73 90/3/73
f 86/4/74 85/1/74 90/3/74
f 87/5/75 86/4/75 90/3/75
f 88/6/76 87/5/76 90/3/76
f 89/7/77 88/6/77 90/3/77
f 90/3/78 82/8/78 89/7/78
f 83/9/79 82/8/79 90/3/79
f 84/2/80 83/9/80 90/3/80
