# Blender 4.0.0
# www.blender.org
mtllib Table.mtl
o Cube
v 1.000000 1.000000 -1.000000
v 1.000000 -1.000000 -1.000000
v 1.000000 1.000000 1.000000
v 1.000000 -1.000000 1.000000
v -1.000000 1.000000 -1.000000
v -1.000000 -1.000000 -1.000000
v -1.000000 1.000000 1.000000
v -1.000000 -1.000000 1.000000
v -0.800000 -1.000000 -1.000000
v -0.800000 1.000000 1.000000
v -0.800000 -1.000000 1.000000
v -0.800000 1.000000 -1.000000
v 0.820000 -1.000000 1.000000
v 0.820000 1.000000 -1.000000
v 0.820000 -1.000000 -1.000000
v 0.820000 1.000000 1.000000
v -1.000000 -1.000000 -0.800000
v 1.000000 1.000000 -0.800000
v -1.000000 1.000000 -0.800000
v 1.000000 -1.000000 -0.800000
v -0.800000 -1.000000 -0.800000
v -0.800000 1.000000 -0.800000
v 0.820000 1.000000 -0.800000
v 0.820000 -1.000000 -0.800000
v -1.000000 -1.000000 0.820000
v 1.000000 1.000000 0.820000
v -0.800000 -1.000000 0.820000
v -0.800000 1.000000 0.820000
v 0.820000 1.000000 0.820000
v 0.820000 -1.000000 0.820000
v -1.000000 1.000000 0.820000
v 1.000000 -1.000000 0.820000
v 1.000000 1.223821 -1.000000
v 1.000000 1.223821 1.000000
v -1.000000 1.223821 -1.000000
v -1.000000 1.223821 1.000000
v -0.800000 1.223821 1.000000
v -0.800000 1.223821 -1.000000
v 0.820000 1.223821 -1.000000
v 0.820000 1.223821 1.000000
v 1.000000 1.223821 -0.800000
v -1.000000 1.223821 -0.800000
v 1.000000 1.223821 0.820000
v -1.000000 1.223821 0.820000
vn -0.0000 1.0000 -0.0000
vn -0.0000 -0.0000 1.0000
vn -1.0000 -0.0000 -0.0000
vn -0.0000 -1.0000 -0.0000
vn 1.0000 -0.0000 -0.0000
vn -0.0000 -0.0000 -1.0000
vt 0.850000 0.727500
vt 0.875000 0.727500
vt 0.875000 0.750000
vt 0.850000 0.750000
vt 0.375000 0.975000
vt 0.625000 0.975000
vt 0.625000 1.000000
vt 0.375000 1.000000
vt 0.375000 0.225000
vt 0.625000 0.225000
vt 0.625000 0.250000
vt 0.375000 0.250000
vt 0.352500 0.727500
vt 0.375000 0.727500
vt 0.375000 0.750000
vt 0.352500 0.750000
vt 0.625000 0.727500
vt 0.625000 0.750000
vt 0.375000 0.477500
vt 0.625000 0.477500
vt 0.625000 0.500000
vt 0.375000 0.500000
vt 0.625000 0.275000
vt 0.375000 0.275000
vt 0.125000 0.727500
vt 0.150000 0.727500
vt 0.150000 0.750000
vt 0.125000 0.750000
vt 0.375000 0.772500
vt 0.625000 0.772500
vt 0.647500 0.727500
vt 0.647500 0.750000
vt 0.375000 0.525000
vt 0.625000 0.525000
vt 0.647500 0.525000
vt 0.352500 0.525000
vt 0.647500 0.500000
vt 0.850000 0.500000
vt 0.850000 0.525000
vt 0.125000 0.500000
vt 0.150000 0.500000
vt 0.150000 0.525000
vt 0.125000 0.525000
vt 0.352500 0.500000
vt 0.375000 0.022500
vt 0.625000 0.022500
vt 0.875000 0.500000
vt 0.875000 0.525000
vt 0.375000 0.000000
vt 0.625000 0.000000
s 0
usemtl Material
f 28/1/1 31/2/1 7/3/1 10/4/1
f 11/5/2 10/6/2 7/7/2 8/8/2
f 17/9/3 19/10/3 5/11/3 6/12/3
f 30/13/4 32/14/4 4/15/4 13/16/4
f 32/14/5 26/17/5 3/18/5 4/15/5
f 15/19/6 14/20/6 1/21/6 2/22/6
f 6/12/6 5/11/6 12/23/6 9/24/6
f 25/25/4 27/26/4 11/27/4 8/28/4
f 13/29/3 16/30/3 29/31/3 30/13/3
f 29/31/1 28/1/1 10/4/1 16/32/1
f 26/17/1 29/31/1 16/32/1 3/18/1
f 4/15/2 3/18/2 16/30/2 13/29/2
f 26/17/6 32/14/6 30/13/6 29/31/6
f 20/33/2 18/34/2 23/35/2 24/36/2
f 1/21/1 14/37/1 23/35/1 18/34/1
f 14/37/1 12/38/1 22/39/1 23/35/1
f 6/40/4 9/41/4 21/42/4 17/43/4
f 2/22/5 1/21/5 18/34/5 20/33/5
f 15/44/4 2/22/4 20/33/4 24/36/4
f 25/45/6 31/46/6 28/1/6 27/26/6
f 12/38/1 5/47/1 19/48/1 22/39/1
f 8/49/3 7/50/3 31/46/3 25/45/3
f 10/6/5 11/5/5 27/26/5 28/1/5
f 18/34/1 23/35/1 29/31/1 26/17/1
f 23/35/1 22/39/1 28/1/1 29/31/1
f 19/10/2 17/9/2 21/42/2 22/39/2
f 22/39/1 19/48/1 31/2/1 28/1/1
f 14/20/3 15/19/3 24/36/3 23/35/3
f 9/24/5 12/23/5 22/39/5 21/42/5
f 18/34/3 26/17/3 43/17/3 41/34/3
f 26/17/3 3/18/3 34/18/3 43/17/3
f 5/11/2 12/23/2 38/23/2 35/11/2
f 16/32/2 3/18/2 34/18/2 40/32/2
f 31/2/3 7/3/3 36/3/3 44/2/3
f 31/2/5 19/48/5 42/48/5 44/2/5
f 16/32/6 10/4/6 37/4/6 40/32/6
f 12/38/2 14/37/2 39/37/2 38/38/2
f 19/10/5 5/11/5 35/11/5 42/10/5
f 7/3/2 10/4/2 37/4/2 36/3/2
f 14/20/2 1/21/2 33/21/2 39/20/2
f 18/34/5 1/21/5 33/21/5 41/34/5
f 37/4/1 40/32/1 34/18/1 43/17/1 41/34/1 33/21/1 39/20/1 38/38/1 35/11/1 42/10/1 44/2/1 36/3/1
