# Blender 4.0.0
# www.blender.org
mtllib LowPolyTree_log.mtl
o Cylinder
v -0.000000 0.000000 -0.616693
v 0.342616 21.265497 -0.512762
v 0.436068 0.000000 -0.436068
v 0.604844 21.265497 -0.120311
v 0.616693 0.000000 0.000000
v 0.512762 21.265497 0.342616
v 0.436068 0.000000 0.436068
v 0.120311 21.265497 0.604844
v -0.000000 0.000000 0.616693
v -0.120311 21.265497 0.604844
v -0.436068 0.000000 0.436068
v -0.512762 21.265497 0.342616
v -0.616693 0.000000 0.000000
v -0.604844 21.265497 -0.120311
v -0.436068 0.000000 -0.436068
v -0.342616 21.265497 -0.512762
vn 0.5556 0.0017 0.8315
vn 0.9239 -0.0017 0.3827
vn -0.0000 1.0000 -0.0000
vn 0.3827 -0.0017 0.9239
vn -0.0000 0.0006 1.0000
vn -0.3827 -0.0017 0.9239
vn -0.5556 0.0017 0.8315
vn -0.9239 -0.0017 0.3827
vn -0.9808 0.0017 0.1951
vn -0.9239 -0.0017 -0.3827
vn -0.0000 -1.0000 -0.0000
vn -0.8315 0.0017 -0.5556
vn -0.3827 -0.0017 -0.9239
vn -0.0000 0.0049 -1.0000
vn 0.9239 -0.0017 -0.3827
vn 0.3827 -0.0017 -0.9239
vn 0.8315 0.0017 -0.5556
vn 0.9808 0.0017 0.1951
vt 0.011701 0.999151
vt 0.000000 0.000125
vt 0.059878 0.000000
vt 0.212135 0.999494
vt 0.273818 0.000829
vt 0.283801 1.000000
vt 0.714716 0.144558
vt 0.654838 0.184567
vt 0.584207 0.170518
vt 0.544198 0.110640
vt 0.544198 0.073927
vt 0.584207 0.014049
vt 0.654838 -0.000000
vt 0.714716 0.040009
vt 0.078234 0.999065
vt 0.096590 0.000000
vt 0.144767 0.999151
vt 0.156468 0.000125
vt 0.283801 1.000000
vt 0.293783 0.000829
vt 0.355467 0.999494
vt 0.365449 0.000323
vt 0.411133 0.999100
vt 0.718057 0.307503
vt 0.667135 0.358425
vt 0.595120 0.358425
vt 0.544198 0.307503
vt 0.544198 0.235489
vt 0.595120 0.184567
vt 0.667135 0.184567
vt 0.718057 0.235489
vt 0.411133 -0.000000
vt 0.477666 0.999102
vt 0.411133 0.999053
vt 0.425391 0.000000
vt 0.529940 0.000000
vt 0.156468 0.999100
vt 0.202153 0.000323
vt 0.544198 0.999053
vt 0.156468 0.000000
s 0
f 7/1/1 6/2/1 8/3/1
f 5/4/2 6/5/2 7/6/2
f 16/7/3 14/8/3 12/9/3 10/10/3 8/11/3 6/12/3 4/13/3 2/14/3
f 7/1/4 8/3/4 9/15/4
f 8/3/5 10/16/5 9/15/5
f 9/15/6 10/16/6 11/17/6
f 12/18/7 11/17/7 10/16/7
f 11/19/8 12/20/8 13/21/8
f 14/22/9 13/21/9 12/20/9
f 13/21/10 14/22/10 15/23/10
f 1/24/11 3/25/11 5/26/11 7/27/11 9/28/11 11/29/11 13/30/11 15/31/11
f 16/32/12 15/23/12 14/22/12
f 1/33/13 15/34/13 16/35/13
f 1/33/14 16/35/14 2/36/14
f 3/37/15 4/38/15 5/4/15
f 1/33/16 2/36/16 3/39/16
f 3/37/17 2/40/17 4/38/17
f 5/4/18 4/38/18 6/5/18
